<svg width="913" height="221" viewBox="0 0 913 221" fill="none" xmlns="http://www.w3.org/2000/svg">
<path d="M12.5156 20.75H24.4219L41.9531 70.8594L59.4844 20.75H71.3906L46.7344 89H37.1719L12.5156 20.75ZM6.09375 20.75H17.9531L20.1094 69.5938V89H6.09375V20.75ZM65.9531 20.75H77.8594V89H63.7969V69.5938L65.9531 20.75ZM135.984 78.0312V89H99.6562V78.0312H135.984ZM104.25 20.75V89H90.1875V20.75H104.25ZM131.25 48.5469V59.2344H99.6562V48.5469H131.25ZM135.938 20.75V31.7656H99.6562V20.75H135.938ZM175.641 20.75V89H161.625V20.75H175.641ZM196.641 20.75V31.7656H140.953V20.75H196.641ZM227.344 32.4219L208.781 89H193.828L219.188 20.75H228.703L227.344 32.4219ZM242.766 89L224.156 32.4219L222.656 20.75H232.266L257.766 89H242.766ZM241.922 63.5938V74.6094H205.875V63.5938H241.922ZM278.203 78.1719L291.797 20.75H299.391L301.125 30.3125L286.641 89H278.484L278.203 78.1719ZM271.219 20.75L282.469 78.1719L281.531 89H272.438L257.297 20.75H271.219ZM313.078 77.9375L324.188 20.75H338.109L323.016 89H313.922L313.078 77.9375ZM303.656 20.75L317.344 78.4062L316.969 89H308.812L294.234 30.2656L296.109 20.75H303.656ZM371.438 32.4219L352.875 89H337.922L363.281 20.75H372.797L371.438 32.4219ZM386.859 89L368.25 32.4219L366.75 20.75H376.359L401.859 89H386.859ZM386.016 63.5938V74.6094H349.969V63.5938H386.016ZM428.953 74.75L445.031 20.75H460.688L436.922 89H426.609L428.953 74.75ZM414.141 20.75L430.172 74.75L432.609 89H422.203L398.578 20.75H414.141ZM512.859 78.0312V89H476.531V78.0312H512.859ZM481.125 20.75V89H467.062V20.75H481.125ZM508.125 48.5469V59.2344H476.531V48.5469H508.125ZM512.812 20.75V31.7656H476.531V20.75H512.812ZM556.594 71.1406C556.594 69.9219 556.406 68.8281 556.031 67.8594C555.688 66.8594 555.031 65.9531 554.062 65.1406C553.094 64.2969 551.734 63.4688 549.984 62.6562C548.234 61.8438 545.969 61 543.188 60.125C540.094 59.125 537.156 58 534.375 56.75C531.625 55.5 529.188 54.0469 527.062 52.3906C524.969 50.7031 523.312 48.75 522.094 46.5312C520.906 44.3125 520.312 41.7344 520.312 38.7969C520.312 35.9531 520.938 33.375 522.188 31.0625C523.438 28.7188 525.188 26.7187 527.438 25.0625C529.688 23.375 532.344 22.0781 535.406 21.1719C538.5 20.2656 541.891 19.8125 545.578 19.8125C550.609 19.8125 555 20.7187 558.75 22.5312C562.5 24.3438 565.406 26.8281 567.469 29.9844C569.562 33.1406 570.609 36.75 570.609 40.8125H556.641C556.641 38.8125 556.219 37.0625 555.375 35.5625C554.562 34.0312 553.312 32.8281 551.625 31.9531C549.969 31.0781 547.875 30.6406 545.344 30.6406C542.906 30.6406 540.875 31.0156 539.25 31.7656C537.625 32.4844 536.406 33.4688 535.594 34.7188C534.781 35.9375 534.375 37.3125 534.375 38.8438C534.375 40 534.656 41.0469 535.219 41.9844C535.812 42.9219 536.688 43.7969 537.844 44.6094C539 45.4219 540.422 46.1875 542.109 46.9062C543.797 47.625 545.75 48.3281 547.969 49.0156C551.688 50.1406 554.953 51.4062 557.766 52.8125C560.609 54.2188 562.984 55.7969 564.891 57.5469C566.797 59.2969 568.234 61.2812 569.203 63.5C570.172 65.7188 570.656 68.2344 570.656 71.0469C570.656 74.0156 570.078 76.6719 568.922 79.0156C567.766 81.3594 566.094 83.3438 563.906 84.9688C561.719 86.5938 559.109 87.8281 556.078 88.6719C553.047 89.5156 549.656 89.9375 545.906 89.9375C542.531 89.9375 539.203 89.5 535.922 88.625C532.641 87.7188 529.656 86.3594 526.969 84.5469C524.312 82.7344 522.188 80.4219 520.594 77.6094C519 74.7969 518.203 71.4688 518.203 67.625H532.312C532.312 69.75 532.641 71.5469 533.297 73.0156C533.953 74.4844 534.875 75.6719 536.062 76.5781C537.281 77.4844 538.719 78.1406 540.375 78.5469C542.062 78.9531 543.906 79.1562 545.906 79.1562C548.344 79.1562 550.344 78.8125 551.906 78.125C553.5 77.4375 554.672 76.4844 555.422 75.2656C556.203 74.0469 556.594 72.6719 556.594 71.1406ZM610.734 20.75V89H596.719V20.75H610.734ZM631.734 20.75V31.7656H576.047V20.75H631.734ZM677.438 20.75H691.453V65.8438C691.453 71.0938 690.328 75.5156 688.078 79.1094C685.859 82.7031 682.781 85.4062 678.844 87.2188C674.938 89.0312 670.438 89.9375 665.344 89.9375C660.25 89.9375 655.719 89.0312 651.75 87.2188C647.812 85.4062 644.719 82.7031 642.469 79.1094C640.25 75.5156 639.141 71.0938 639.141 65.8438V20.75H653.203V65.8438C653.203 68.9062 653.688 71.4062 654.656 73.3438C655.625 75.2812 657.016 76.7031 658.828 77.6094C660.672 78.5156 662.844 78.9688 665.344 78.9688C667.906 78.9688 670.078 78.5156 671.859 77.6094C673.672 76.7031 675.047 75.2812 675.984 73.3438C676.953 71.4062 677.438 68.9062 677.438 65.8438V20.75ZM723.984 89H709.125L709.219 78.0312H723.984C727.672 78.0312 730.781 77.2031 733.312 75.5469C735.844 73.8594 737.75 71.4062 739.031 68.1875C740.344 64.9688 741 61.0781 741 56.5156V53.1875C741 49.6875 740.625 46.6094 739.875 43.9531C739.156 41.2969 738.078 39.0625 736.641 37.25C735.203 35.4375 733.438 34.0781 731.344 33.1719C729.25 32.2344 726.844 31.7656 724.125 31.7656H708.844V20.75H724.125C728.688 20.75 732.859 21.5313 736.641 23.0938C740.453 24.625 743.75 26.8281 746.531 29.7031C749.312 32.5781 751.453 36.0156 752.953 40.0156C754.484 43.9844 755.25 48.4062 755.25 53.2812V56.5156C755.25 61.3594 754.484 65.7812 752.953 69.7812C751.453 73.7812 749.312 77.2188 746.531 80.0938C743.781 82.9375 740.484 85.1406 736.641 86.7031C732.828 88.2344 728.609 89 723.984 89ZM717.094 20.75V89H703.031V20.75H717.094ZM780.422 20.75V89H766.406V20.75H780.422ZM849.656 53.2812V56.5156C849.656 61.7031 848.953 66.3594 847.547 70.4844C846.141 74.6094 844.156 78.125 841.594 81.0312C839.031 83.9062 835.969 86.1094 832.406 87.6406C828.875 89.1719 824.953 89.9375 820.641 89.9375C816.359 89.9375 812.438 89.1719 808.875 87.6406C805.344 86.1094 802.281 83.9062 799.688 81.0312C797.094 78.125 795.078 74.6094 793.641 70.4844C792.234 66.3594 791.531 61.7031 791.531 56.5156V53.2812C791.531 48.0625 792.234 43.4062 793.641 39.3125C795.047 35.1875 797.031 31.6719 799.594 28.7656C802.188 25.8594 805.25 23.6406 808.781 22.1094C812.344 20.5781 816.266 19.8125 820.547 19.8125C824.859 19.8125 828.781 20.5781 832.312 22.1094C835.875 23.6406 838.938 25.8594 841.5 28.7656C844.094 31.6719 846.094 35.1875 847.5 39.3125C848.938 43.4062 849.656 48.0625 849.656 53.2812ZM835.453 56.5156V53.1875C835.453 49.5625 835.125 46.375 834.469 43.625C833.812 40.875 832.844 38.5625 831.562 36.6875C830.281 34.8125 828.719 33.4062 826.875 32.4688C825.031 31.5 822.922 31.0156 820.547 31.0156C818.172 31.0156 816.062 31.5 814.219 32.4688C812.406 33.4062 810.859 34.8125 809.578 36.6875C808.328 38.5625 807.375 40.875 806.719 43.625C806.062 46.375 805.734 49.5625 805.734 53.1875V56.5156C805.734 60.1094 806.062 63.2969 806.719 66.0781C807.375 68.8281 808.344 71.1562 809.625 73.0625C810.906 74.9375 812.469 76.3594 814.312 77.3281C816.156 78.2969 818.266 78.7812 820.641 78.7812C823.016 78.7812 825.125 78.2969 826.969 77.3281C828.812 76.3594 830.359 74.9375 831.609 73.0625C832.859 71.1562 833.812 68.8281 834.469 66.0781C835.125 63.2969 835.453 60.1094 835.453 56.5156ZM895.312 71.1406C895.312 69.9219 895.125 68.8281 894.75 67.8594C894.406 66.8594 893.75 65.9531 892.781 65.1406C891.812 64.2969 890.453 63.4688 888.703 62.6562C886.953 61.8438 884.688 61 881.906 60.125C878.812 59.125 875.875 58 873.094 56.75C870.344 55.5 867.906 54.0469 865.781 52.3906C863.688 50.7031 862.031 48.75 860.812 46.5312C859.625 44.3125 859.031 41.7344 859.031 38.7969C859.031 35.9531 859.656 33.375 860.906 31.0625C862.156 28.7188 863.906 26.7187 866.156 25.0625C868.406 23.375 871.062 22.0781 874.125 21.1719C877.219 20.2656 880.609 19.8125 884.297 19.8125C889.328 19.8125 893.719 20.7187 897.469 22.5312C901.219 24.3438 904.125 26.8281 906.188 29.9844C908.281 33.1406 909.328 36.75 909.328 40.8125H895.359C895.359 38.8125 894.938 37.0625 894.094 35.5625C893.281 34.0312 892.031 32.8281 890.344 31.9531C888.688 31.0781 886.594 30.6406 884.062 30.6406C881.625 30.6406 879.594 31.0156 877.969 31.7656C876.344 32.4844 875.125 33.4688 874.312 34.7188C873.5 35.9375 873.094 37.3125 873.094 38.8438C873.094 40 873.375 41.0469 873.938 41.9844C874.531 42.9219 875.406 43.7969 876.562 44.6094C877.719 45.4219 879.141 46.1875 880.828 46.9062C882.516 47.625 884.469 48.3281 886.688 49.0156C890.406 50.1406 893.672 51.4062 896.484 52.8125C899.328 54.2188 901.703 55.7969 903.609 57.5469C905.516 59.2969 906.953 61.2812 907.922 63.5C908.891 65.7188 909.375 68.2344 909.375 71.0469C909.375 74.0156 908.797 76.6719 907.641 79.0156C906.484 81.3594 904.812 83.3438 902.625 84.9688C900.438 86.5938 897.828 87.8281 894.797 88.6719C891.766 89.5156 888.375 89.9375 884.625 89.9375C881.25 89.9375 877.922 89.5 874.641 88.625C871.359 87.7188 868.375 86.3594 865.688 84.5469C863.031 82.7344 860.906 80.4219 859.312 77.6094C857.719 74.7969 856.922 71.4688 856.922 67.625H871.031C871.031 69.75 871.359 71.5469 872.016 73.0156C872.672 74.4844 873.594 75.6719 874.781 76.5781C876 77.4844 877.438 78.1406 879.094 78.5469C880.781 78.9531 882.625 79.1562 884.625 79.1562C887.062 79.1562 889.062 78.8125 890.625 78.125C892.219 77.4375 893.391 76.4844 894.141 75.2656C894.922 74.0469 895.312 72.6719 895.312 71.1406Z" fill="black"/>
<path d="M12.5156 20.75V19.75H11.0911L11.5751 21.0898L12.5156 20.75ZM24.4219 20.75L25.3658 20.4198L25.1314 19.75H24.4219V20.75ZM41.9531 70.8594L41.0092 71.1896L41.9531 73.8875L42.897 71.1896L41.9531 70.8594ZM59.4844 20.75V19.75H58.7748L58.5405 20.4198L59.4844 20.75ZM71.3906 20.75L72.3311 21.0898L72.8151 19.75H71.3906V20.75ZM46.7344 89V90H47.4364L47.6749 89.3398L46.7344 89ZM37.1719 89L36.2314 89.3398L36.4699 90H37.1719V89ZM6.09375 20.75V19.75H5.09375V20.75H6.09375ZM17.9531 20.75L18.9522 20.7059L18.91 19.75H17.9531V20.75ZM20.1094 69.5938H21.1094V69.5717L21.1084 69.5496L20.1094 69.5938ZM20.1094 89V90H21.1094V89H20.1094ZM6.09375 89H5.09375V90H6.09375V89ZM65.9531 20.75V19.75H64.9963L64.9541 20.7059L65.9531 20.75ZM77.8594 20.75H78.8594V19.75H77.8594V20.75ZM77.8594 89V90H78.8594V89H77.8594ZM63.7969 89H62.7969V90H63.7969V89ZM63.7969 69.5938L62.7978 69.5496L62.7969 69.5717V69.5938H63.7969ZM12.5156 21.75H24.4219V19.75H12.5156V21.75ZM23.478 21.0802L41.0092 71.1896L42.897 70.5291L25.3658 20.4198L23.478 21.0802ZM42.897 71.1896L60.4283 21.0802L58.5405 20.4198L41.0092 70.5291L42.897 71.1896ZM59.4844 21.75H71.3906V19.75H59.4844V21.75ZM70.4501 20.4102L45.7939 88.6602L47.6749 89.3398L72.3311 21.0898L70.4501 20.4102ZM46.7344 88H37.1719V90H46.7344V88ZM38.1124 88.6602L13.4561 20.4102L11.5751 21.0898L36.2314 89.3398L38.1124 88.6602ZM6.09375 21.75H17.9531V19.75H6.09375V21.75ZM16.9541 20.7941L19.1103 69.6379L21.1084 69.5496L18.9522 20.7059L16.9541 20.7941ZM19.1094 69.5938V89H21.1094V69.5938H19.1094ZM20.1094 88H6.09375V90H20.1094V88ZM7.09375 89V20.75H5.09375V89H7.09375ZM65.9531 21.75H77.8594V19.75H65.9531V21.75ZM76.8594 20.75V89H78.8594V20.75H76.8594ZM77.8594 88H63.7969V90H77.8594V88ZM64.7969 89V69.5938H62.7969V89H64.7969ZM64.7959 69.6379L66.9522 20.7941L64.9541 20.7059L62.7978 69.5496L64.7959 69.6379ZM135.984 78.0312H136.984V77.0312H135.984V78.0312ZM135.984 89V90H136.984V89H135.984ZM99.6562 89H98.6562V90H99.6562V89ZM99.6562 78.0312V77.0312H98.6562V78.0312H99.6562ZM104.25 20.75H105.25V19.75H104.25V20.75ZM104.25 89V90H105.25V89H104.25ZM90.1875 89H89.1875V90H90.1875V89ZM90.1875 20.75V19.75H89.1875V20.75H90.1875ZM131.25 48.5469H132.25V47.5469H131.25V48.5469ZM131.25 59.2344V60.2344H132.25V59.2344H131.25ZM99.6562 59.2344H98.6562V60.2344H99.6562V59.2344ZM99.6562 48.5469V47.5469H98.6562V48.5469H99.6562ZM135.938 20.75H136.938V19.75H135.938V20.75ZM135.938 31.7656V32.7656H136.938V31.7656H135.938ZM99.6562 31.7656H98.6562V32.7656H99.6562V31.7656ZM99.6562 20.75V19.75H98.6562V20.75H99.6562ZM134.984 78.0312V89H136.984V78.0312H134.984ZM135.984 88H99.6562V90H135.984V88ZM100.656 89V78.0312H98.6562V89H100.656ZM99.6562 79.0312H135.984V77.0312H99.6562V79.0312ZM103.25 20.75V89H105.25V20.75H103.25ZM104.25 88H90.1875V90H104.25V88ZM91.1875 89V20.75H89.1875V89H91.1875ZM90.1875 21.75H104.25V19.75H90.1875V21.75ZM130.25 48.5469V59.2344H132.25V48.5469H130.25ZM131.25 58.2344H99.6562V60.2344H131.25V58.2344ZM100.656 59.2344V48.5469H98.6562V59.2344H100.656ZM99.6562 49.5469H131.25V47.5469H99.6562V49.5469ZM134.938 20.75V31.7656H136.938V20.75H134.938ZM135.938 30.7656H99.6562V32.7656H135.938V30.7656ZM100.656 31.7656V20.75H98.6562V31.7656H100.656ZM99.6562 21.75H135.938V19.75H99.6562V21.75ZM175.641 20.75H176.641V19.75H175.641V20.75ZM175.641 89V90H176.641V89H175.641ZM161.625 89H160.625V90H161.625V89ZM161.625 20.75V19.75H160.625V20.75H161.625ZM196.641 20.75H197.641V19.75H196.641V20.75ZM196.641 31.7656V32.7656H197.641V31.7656H196.641ZM140.953 31.7656H139.953V32.7656H140.953V31.7656ZM140.953 20.75V19.75H139.953V20.75H140.953ZM174.641 20.75V89H176.641V20.75H174.641ZM175.641 88H161.625V90H175.641V88ZM162.625 89V20.75H160.625V89H162.625ZM161.625 21.75H175.641V19.75H161.625V21.75ZM195.641 20.75V31.7656H197.641V20.75H195.641ZM196.641 30.7656H140.953V32.7656H196.641V30.7656ZM141.953 31.7656V20.75H139.953V31.7656H141.953ZM140.953 21.75H196.641V19.75H140.953V21.75ZM227.344 32.4219L228.294 32.7336L228.325 32.6378L228.337 32.5376L227.344 32.4219ZM208.781 89V90H209.506L209.731 89.3117L208.781 89ZM193.828 89L192.891 88.6517L192.39 90H193.828V89ZM219.188 20.75V19.75H218.492L218.25 20.4017L219.188 20.75ZM228.703 20.75L229.696 20.8657L229.826 19.75H228.703V20.75ZM242.766 89L241.816 89.3124L242.042 90H242.766V89ZM224.156 32.4219L223.164 32.5493L223.177 32.6438L223.206 32.7343L224.156 32.4219ZM222.656 20.75V19.75H221.52L221.664 20.8775L222.656 20.75ZM232.266 20.75L233.202 20.4L232.96 19.75H232.266V20.75ZM257.766 89V90H259.207L258.702 88.65L257.766 89ZM241.922 63.5938H242.922V62.5938H241.922V63.5938ZM241.922 74.6094V75.6094H242.922V74.6094H241.922ZM205.875 74.6094H204.875V75.6094H205.875V74.6094ZM205.875 63.5938V62.5938H204.875V63.5938H205.875ZM226.394 32.1101L207.831 88.6883L209.731 89.3117L228.294 32.7336L226.394 32.1101ZM208.781 88H193.828V90H208.781V88ZM194.766 89.3483L220.125 21.0983L218.25 20.4017L192.891 88.6517L194.766 89.3483ZM219.188 21.75H228.703V19.75H219.188V21.75ZM227.71 20.6343L226.35 32.3062L228.337 32.5376L229.696 20.8657L227.71 20.6343ZM243.716 88.6876L225.106 32.1094L223.206 32.7343L241.816 89.3124L243.716 88.6876ZM225.148 32.2944L223.648 20.6225L221.664 20.8775L223.164 32.5493L225.148 32.2944ZM222.656 21.75H232.266V19.75H222.656V21.75ZM231.329 21.1L256.829 89.35L258.702 88.65L233.202 20.4L231.329 21.1ZM257.766 88H242.766V90H257.766V88ZM240.922 63.5938V74.6094H242.922V63.5938H240.922ZM241.922 73.6094H205.875V75.6094H241.922V73.6094ZM206.875 74.6094V63.5938H204.875V74.6094H206.875ZM205.875 64.5938H241.922V62.5938H205.875V64.5938ZM278.203 78.1719L277.23 77.9415L277.2 78.0679L277.203 78.1978L278.203 78.1719ZM291.797 20.75V19.75H291.006L290.824 20.5196L291.797 20.75ZM299.391 20.75L300.375 20.5715L300.226 19.75H299.391V20.75ZM301.125 30.3125L302.096 30.5521L302.147 30.3445L302.109 30.134L301.125 30.3125ZM286.641 89V90H287.424L287.611 89.2396L286.641 89ZM278.484 89L277.485 89.026L277.51 90H278.484V89ZM271.219 20.75L272.2 20.5577L272.042 19.75H271.219V20.75ZM282.469 78.1719L283.465 78.2581L283.477 78.1178L283.45 77.9796L282.469 78.1719ZM281.531 89V90H282.448L282.528 89.0863L281.531 89ZM272.438 89L271.461 89.2166L271.635 90H272.438V89ZM257.297 20.75V19.75H256.051L256.321 20.9666L257.297 20.75ZM313.078 77.9375L312.096 77.7468L312.071 77.8791L312.081 78.0136L313.078 77.9375ZM324.188 20.75V19.75H323.363L323.206 20.5593L324.188 20.75ZM338.109 20.75L339.086 20.9659L339.355 19.75H338.109V20.75ZM323.016 89V90H323.819L323.992 89.2159L323.016 89ZM313.922 89L312.925 89.0761L312.995 90H313.922V89ZM303.656 20.75L304.629 20.519L304.447 19.75H303.656V20.75ZM317.344 78.4062L318.343 78.4416L318.348 78.3067L318.317 78.1753L317.344 78.4062ZM316.969 89V90H317.934L317.968 89.0354L316.969 89ZM308.812 89L307.842 89.2409L308.03 90H308.812V89ZM294.234 30.2656L293.253 30.0723L293.21 30.2906L293.264 30.5065L294.234 30.2656ZM296.109 20.75V19.75H295.287L295.128 20.5567L296.109 20.75ZM279.176 78.4022L292.77 20.9804L290.824 20.5196L277.23 77.9415L279.176 78.4022ZM291.797 21.75H299.391V19.75H291.797V21.75ZM298.407 20.9285L300.141 30.491L302.109 30.134L300.375 20.5715L298.407 20.9285ZM300.154 30.0729L285.67 88.7604L287.611 89.2396L302.096 30.5521L300.154 30.0729ZM286.641 88H278.484V90H286.641V88ZM279.484 88.974L279.203 78.1459L277.203 78.1978L277.485 89.026L279.484 88.974ZM270.237 20.9423L281.487 78.3641L283.45 77.9796L272.2 20.5577L270.237 20.9423ZM281.472 78.0856L280.535 88.9137L282.528 89.0863L283.465 78.2581L281.472 78.0856ZM281.531 88H272.438V90H281.531V88ZM273.414 88.7834L258.273 20.5334L256.321 20.9666L271.461 89.2166L273.414 88.7834ZM257.297 21.75H271.219V19.75H257.297V21.75ZM314.06 78.1282L325.169 20.9407L323.206 20.5593L312.096 77.7468L314.06 78.1282ZM324.188 21.75H338.109V19.75H324.188V21.75ZM337.133 20.5341L322.039 88.7841L323.992 89.2159L339.086 20.9659L337.133 20.5341ZM323.016 88H313.922V90H323.016V88ZM314.919 88.9239L314.075 77.8614L312.081 78.0136L312.925 89.0761L314.919 88.9239ZM302.683 20.981L316.371 78.6372L318.317 78.1753L304.629 20.519L302.683 20.981ZM316.344 78.3709L315.969 88.9646L317.968 89.0354L318.343 78.4416L316.344 78.3709ZM316.969 88H308.812V90H316.969V88ZM309.783 88.7591L295.205 30.0247L293.264 30.5065L307.842 89.2409L309.783 88.7591ZM295.216 30.459L297.091 20.9433L295.128 20.5567L293.253 30.0723L295.216 30.459ZM296.109 21.75H303.656V19.75H296.109V21.75ZM371.438 32.4219L372.388 32.7336L372.419 32.6378L372.431 32.5376L371.438 32.4219ZM352.875 89V90H353.599L353.825 89.3117L352.875 89ZM337.922 89L336.984 88.6517L336.484 90H337.922V89ZM363.281 20.75V19.75H362.586L362.344 20.4017L363.281 20.75ZM372.797 20.75L373.79 20.8657L373.92 19.75H372.797V20.75ZM386.859 89L385.909 89.3124L386.136 90H386.859V89ZM368.25 32.4219L367.258 32.5493L367.27 32.6438L367.3 32.7343L368.25 32.4219ZM366.75 20.75V19.75H365.613L365.758 20.8775L366.75 20.75ZM376.359 20.75L377.296 20.4L377.053 19.75H376.359V20.75ZM401.859 89V90H403.301L402.796 88.65L401.859 89ZM386.016 63.5938H387.016V62.5938H386.016V63.5938ZM386.016 74.6094V75.6094H387.016V74.6094H386.016ZM349.969 74.6094H348.969V75.6094H349.969V74.6094ZM349.969 63.5938V62.5938H348.969V63.5938H349.969ZM370.487 32.1101L351.925 88.6883L353.825 89.3117L372.388 32.7336L370.487 32.1101ZM352.875 88H337.922V90H352.875V88ZM338.859 89.3483L364.219 21.0983L362.344 20.4017L336.984 88.6517L338.859 89.3483ZM363.281 21.75H372.797V19.75H363.281V21.75ZM371.804 20.6343L370.444 32.3062L372.431 32.5376L373.79 20.8657L371.804 20.6343ZM387.809 88.6876L369.2 32.1094L367.3 32.7343L385.909 89.3124L387.809 88.6876ZM369.242 32.2944L367.742 20.6225L365.758 20.8775L367.258 32.5493L369.242 32.2944ZM366.75 21.75H376.359V19.75H366.75V21.75ZM375.423 21.1L400.923 89.35L402.796 88.65L377.296 20.4L375.423 21.1ZM401.859 88H386.859V90H401.859V88ZM385.016 63.5938V74.6094H387.016V63.5938H385.016ZM386.016 73.6094H349.969V75.6094H386.016V73.6094ZM350.969 74.6094V63.5938H348.969V74.6094H350.969ZM349.969 64.5938H386.016V62.5938H349.969V64.5938ZM428.953 74.75L427.995 74.4646L427.977 74.5253L427.966 74.5877L428.953 74.75ZM445.031 20.75V19.75H444.286L444.073 20.4646L445.031 20.75ZM460.688 20.75L461.632 21.0788L462.095 19.75H460.688V20.75ZM436.922 89V90H437.633L437.866 89.3288L436.922 89ZM426.609 89L425.623 88.8377L425.431 90H426.609V89ZM414.141 20.75L415.099 20.4654L414.887 19.75H414.141V20.75ZM430.172 74.75L431.158 74.5814L431.148 74.5226L431.131 74.4654L430.172 74.75ZM432.609 89V90H433.795L433.595 88.8314L432.609 89ZM422.203 89L421.258 89.3271L421.491 90H422.203V89ZM398.578 20.75V19.75H397.174L397.633 21.0771L398.578 20.75ZM429.912 75.0354L445.99 21.0354L444.073 20.4646L427.995 74.4646L429.912 75.0354ZM445.031 21.75H460.688V19.75H445.031V21.75ZM459.743 20.4212L435.977 88.6712L437.866 89.3288L461.632 21.0788L459.743 20.4212ZM436.922 88H426.609V90H436.922V88ZM427.596 89.1623L429.94 74.9123L427.966 74.5877L425.623 88.8377L427.596 89.1623ZM413.182 21.0346L429.213 75.0346L431.131 74.4654L415.099 20.4654L413.182 21.0346ZM429.186 74.9186L431.624 89.1686L433.595 88.8314L431.158 74.5814L429.186 74.9186ZM432.609 88H422.203V90H432.609V88ZM423.148 88.6729L399.523 20.4229L397.633 21.0771L421.258 89.3271L423.148 88.6729ZM398.578 21.75H414.141V19.75H398.578V21.75ZM512.859 78.0312H513.859V77.0312H512.859V78.0312ZM512.859 89V90H513.859V89H512.859ZM476.531 89H475.531V90H476.531V89ZM476.531 78.0312V77.0312H475.531V78.0312H476.531ZM481.125 20.75H482.125V19.75H481.125V20.75ZM481.125 89V90H482.125V89H481.125ZM467.062 89H466.062V90H467.062V89ZM467.062 20.75V19.75H466.062V20.75H467.062ZM508.125 48.5469H509.125V47.5469H508.125V48.5469ZM508.125 59.2344V60.2344H509.125V59.2344H508.125ZM476.531 59.2344H475.531V60.2344H476.531V59.2344ZM476.531 48.5469V47.5469H475.531V48.5469H476.531ZM512.812 20.75H513.812V19.75H512.812V20.75ZM512.812 31.7656V32.7656H513.812V31.7656H512.812ZM476.531 31.7656H475.531V32.7656H476.531V31.7656ZM476.531 20.75V19.75H475.531V20.75H476.531ZM511.859 78.0312V89H513.859V78.0312H511.859ZM512.859 88H476.531V90H512.859V88ZM477.531 89V78.0312H475.531V89H477.531ZM476.531 79.0312H512.859V77.0312H476.531V79.0312ZM480.125 20.75V89H482.125V20.75H480.125ZM481.125 88H467.062V90H481.125V88ZM468.062 89V20.75H466.062V89H468.062ZM467.062 21.75H481.125V19.75H467.062V21.75ZM507.125 48.5469V59.2344H509.125V48.5469H507.125ZM508.125 58.2344H476.531V60.2344H508.125V58.2344ZM477.531 59.2344V48.5469H475.531V59.2344H477.531ZM476.531 49.5469H508.125V47.5469H476.531V49.5469ZM511.812 20.75V31.7656H513.812V20.75H511.812ZM512.812 30.7656H476.531V32.7656H512.812V30.7656ZM477.531 31.7656V20.75H475.531V31.7656H477.531ZM476.531 21.75H512.812V19.75H476.531V21.75ZM556.031 67.8594L555.086 68.1845L555.092 68.2025L555.099 68.2204L556.031 67.8594ZM554.062 65.1406L553.406 65.8947L553.413 65.9008L553.42 65.9068L554.062 65.1406ZM543.188 60.125L542.88 61.0766L542.887 61.0789L543.188 60.125ZM534.375 56.75L533.961 57.6604L533.965 57.6621L534.375 56.75ZM527.062 52.3906L526.435 53.1692L526.441 53.1743L526.448 53.1794L527.062 52.3906ZM522.094 46.5312L521.212 47.0032L521.217 47.0127L522.094 46.5312ZM522.188 31.0625L523.067 31.538L523.07 31.5331L522.188 31.0625ZM527.438 25.0625L528.03 25.8679L528.038 25.8625L527.438 25.0625ZM535.406 21.1719L535.125 20.2122L535.122 20.213L535.406 21.1719ZM567.469 29.9844L566.632 30.5314L566.635 30.5372L567.469 29.9844ZM570.609 40.8125V41.8125H571.609V40.8125H570.609ZM556.641 40.8125H555.641V41.8125H556.641V40.8125ZM555.375 35.5625L554.492 36.0312L554.497 36.0421L554.503 36.0528L555.375 35.5625ZM551.625 31.9531L551.158 32.8373L551.165 32.8409L551.625 31.9531ZM539.25 31.7656L539.655 32.6802L539.662 32.6769L539.669 32.6736L539.25 31.7656ZM535.594 34.7188L536.426 35.2735L536.432 35.2637L535.594 34.7188ZM535.219 41.9844L534.361 42.4989L534.367 42.5092L534.374 42.5194L535.219 41.9844ZM547.969 49.0156L547.673 49.9708L547.679 49.9728L547.969 49.0156ZM557.766 52.8125L557.318 53.7069L557.322 53.7089L557.766 52.8125ZM535.922 88.625L535.656 89.5889L535.664 89.5912L535.922 88.625ZM526.969 84.5469L526.405 85.3729L526.41 85.3759L526.969 84.5469ZM518.203 67.625V66.625H517.203V67.625H518.203ZM532.312 67.625H533.312V66.625H532.312V67.625ZM536.062 76.5781L535.456 77.3731L535.466 77.3806L536.062 76.5781ZM540.375 78.5469L540.137 79.5181L540.141 79.5191L540.375 78.5469ZM551.906 78.125L551.51 77.2068L551.504 77.2097L551.906 78.125ZM555.422 75.2656L554.58 74.726L554.575 74.7337L554.57 74.7415L555.422 75.2656ZM557.594 71.1406C557.594 69.8194 557.39 68.6003 556.964 67.4984L555.099 68.2204C555.422 69.0559 555.594 70.0243 555.594 71.1406H557.594ZM556.977 67.5343C556.563 66.3315 555.786 65.2807 554.705 64.3744L553.42 65.9068C554.277 66.6255 554.812 67.3872 555.086 68.1845L556.977 67.5343ZM554.719 64.3865C553.654 63.4583 552.203 62.5836 550.405 61.7492L549.563 63.5633C551.266 64.3539 552.534 65.1354 553.406 65.8947L554.719 64.3865ZM550.405 61.7492C548.602 60.9118 546.292 60.0532 543.488 59.1711L542.887 61.0789C545.646 61.9468 547.867 62.7757 549.563 63.5633L550.405 61.7492ZM543.495 59.1735C540.434 58.184 537.531 57.0719 534.785 55.8379L533.965 57.6621C536.782 58.9281 539.754 60.066 542.88 61.0765L543.495 59.1735ZM534.789 55.8396C532.102 54.6183 529.733 53.2044 527.677 51.6019L526.448 53.1794C528.642 54.8893 531.148 56.3817 533.961 57.6604L534.789 55.8396ZM527.69 51.612C525.691 50.0012 524.122 48.1472 522.97 46.0498L521.217 47.0127C522.503 49.3528 524.246 51.405 526.435 53.1692L527.69 51.612ZM522.975 46.0594C521.878 44.0083 521.312 41.5974 521.312 38.7969H519.312C519.312 41.8714 519.935 44.6167 521.212 47.0031L522.975 46.0594ZM521.312 38.7969C521.312 36.1052 521.903 33.6927 523.067 31.538L521.308 30.587C519.972 33.0573 519.312 35.801 519.312 38.7969H521.312ZM523.07 31.5331C524.246 29.328 525.894 27.4402 528.03 25.8678L526.845 24.2572C524.481 25.9973 522.629 28.1095 521.305 30.5919L523.07 31.5331ZM528.038 25.8625C530.18 24.2553 532.726 23.0078 535.69 22.1308L535.122 20.213C531.961 21.1484 529.195 22.4947 526.837 24.2625L528.038 25.8625ZM535.687 22.1315C538.678 21.2556 541.972 20.8125 545.578 20.8125V18.8125C541.809 18.8125 538.322 19.2757 535.125 20.2122L535.687 22.1315ZM545.578 20.8125C550.49 20.8125 554.726 21.6969 558.315 23.4316L559.185 21.6309C555.274 19.7406 550.729 18.8125 545.578 18.8125V20.8125ZM558.315 23.4316C561.919 25.1736 564.679 27.5429 566.632 30.5314L568.306 29.4373C566.134 26.1134 563.081 23.5139 559.185 21.6309L558.315 23.4316ZM566.635 30.5372C568.612 33.5175 569.609 36.9317 569.609 40.8125H571.609C571.609 36.5683 570.513 32.7637 568.302 29.4316L566.635 30.5372ZM570.609 39.8125H556.641V41.8125H570.609V39.8125ZM557.641 40.8125C557.641 38.6688 557.187 36.7446 556.247 35.0722L554.503 36.0528C555.25 37.3804 555.641 38.9562 555.641 40.8125H557.641ZM556.258 35.0938C555.341 33.3658 553.935 32.0244 552.085 31.0654L551.165 32.8409C552.69 33.6318 553.784 34.6967 554.492 36.0312L556.258 35.0938ZM552.092 31.0689C550.25 30.0959 547.983 29.6406 545.344 29.6406V31.6406C547.767 31.6406 549.687 32.0604 551.158 32.8373L552.092 31.0689ZM545.344 29.6406C542.811 29.6406 540.626 30.0293 538.831 30.8577L539.669 32.6736C541.124 32.002 543.002 31.6406 545.344 31.6406V29.6406ZM538.845 30.8511C537.078 31.633 535.692 32.7321 534.755 34.1738L536.432 35.2637C537.12 34.2054 538.172 33.3357 539.655 32.6802L538.845 30.8511ZM534.762 34.164C533.835 35.5548 533.375 37.1245 533.375 38.8438H535.375C535.375 37.5005 535.728 36.3202 536.426 35.2735L534.762 34.164ZM533.375 38.8438C533.375 40.1704 533.7 41.3969 534.361 42.4989L536.076 41.4699C535.612 40.6969 535.375 39.8296 535.375 38.8438H533.375ZM534.374 42.5194C535.055 43.594 536.033 44.5592 537.269 45.4276L538.419 43.7912C537.342 43.0345 536.57 42.2497 536.064 41.4493L534.374 42.5194ZM537.269 45.4276C538.496 46.2902 539.984 47.0877 541.718 47.8263L542.501 45.9862C540.86 45.2873 539.504 44.5536 538.419 43.7912L537.269 45.4276ZM541.718 47.8263C543.443 48.5613 545.43 49.2758 547.673 49.9708L548.265 48.0604C546.07 47.3805 544.15 46.6887 542.501 45.9862L541.718 47.8263ZM547.679 49.9728C551.356 51.085 554.567 52.3311 557.318 53.7069L558.213 51.9181C555.339 50.4814 552.019 49.1962 548.258 48.0585L547.679 49.9728ZM557.322 53.7089C560.1 55.0823 562.391 56.6101 564.214 58.2835L565.567 56.8102C563.577 54.9837 561.119 53.3552 558.209 51.9161L557.322 53.7089ZM564.214 58.2835C566.025 59.9459 567.377 61.8177 568.287 63.9001L570.12 63.0999C569.091 60.7448 567.569 58.6478 565.567 56.8102L564.214 58.2835ZM568.287 63.9001C569.192 65.9739 569.656 68.35 569.656 71.0469H571.656C571.656 68.1187 571.152 65.4636 570.12 63.0999L568.287 63.9001ZM569.656 71.0469C569.656 73.8832 569.105 76.3847 568.025 78.5732L569.819 79.458C571.052 76.959 571.656 74.1481 571.656 71.0469H569.656ZM568.025 78.5732C566.942 80.7686 565.376 82.6314 563.31 84.166L564.503 85.7715C566.812 84.0561 568.589 81.9502 569.819 79.458L568.025 78.5732ZM563.31 84.166C561.235 85.7074 558.741 86.8927 555.81 87.7085L556.346 89.6353C559.478 88.7636 562.202 87.4801 564.503 85.7715L563.31 84.166ZM555.81 87.7085C552.881 88.5238 549.582 88.9375 545.906 88.9375V90.9375C549.73 90.9375 553.213 90.5074 556.346 89.6353L555.81 87.7085ZM545.906 88.9375C542.619 88.9375 539.377 88.5115 536.18 87.6588L535.664 89.5912C539.029 90.4885 542.444 90.9375 545.906 90.9375V88.9375ZM536.188 87.6611C533.006 86.7822 530.121 85.4668 527.528 83.7178L526.41 85.3759C529.191 87.2519 532.275 88.6553 535.656 89.5889L536.188 87.6611ZM527.532 83.7209C525.003 81.995 522.983 79.7966 521.464 77.1164L519.724 78.1024C521.392 81.0471 523.622 83.4738 526.405 85.3729L527.532 83.7209ZM521.464 77.1164C519.97 74.4803 519.203 71.3287 519.203 67.625H517.203C517.203 71.6088 518.03 75.1134 519.724 78.1024L521.464 77.1164ZM518.203 68.625H532.312V66.625H518.203V68.625ZM531.312 67.625C531.312 69.8476 531.655 71.7923 532.384 73.4236L534.21 72.6077C533.626 71.3014 533.312 69.6524 533.312 67.625H531.312ZM532.384 73.4236C533.103 75.0328 534.125 76.3577 535.456 77.3731L536.669 75.7832C535.625 74.986 534.803 73.9359 534.21 72.6077L532.384 73.4236ZM535.466 77.3806C536.804 78.3757 538.367 79.084 540.137 79.5181L540.613 77.5757C539.071 77.1973 537.759 76.5931 536.659 75.7757L535.466 77.3806ZM540.141 79.5191C541.916 79.9463 543.839 80.1562 545.906 80.1562V78.1562C543.973 78.1562 542.209 77.9599 540.609 77.5747L540.141 79.5191ZM545.906 80.1562C548.428 80.1562 550.577 79.8022 552.309 79.0403L551.504 77.2097C550.11 77.8228 548.26 78.1562 545.906 78.1562V80.1562ZM552.302 79.0432C554.044 78.2919 555.395 77.218 556.274 75.7897L554.57 74.7415C553.949 75.7508 552.956 76.5831 551.51 77.2068L552.302 79.0432ZM556.264 75.8053C557.154 74.416 557.594 72.8516 557.594 71.1406H555.594C555.594 72.4921 555.252 73.6778 554.58 74.726L556.264 75.8053ZM610.734 20.75H611.734V19.75H610.734V20.75ZM610.734 89V90H611.734V89H610.734ZM596.719 89H595.719V90H596.719V89ZM596.719 20.75V19.75H595.719V20.75H596.719ZM631.734 20.75H632.734V19.75H631.734V20.75ZM631.734 31.7656V32.7656H632.734V31.7656H631.734ZM576.047 31.7656H575.047V32.7656H576.047V31.7656ZM576.047 20.75V19.75H575.047V20.75H576.047ZM609.734 20.75V89H611.734V20.75H609.734ZM610.734 88H596.719V90H610.734V88ZM597.719 89V20.75H595.719V89H597.719ZM596.719 21.75H610.734V19.75H596.719V21.75ZM630.734 20.75V31.7656H632.734V20.75H630.734ZM631.734 30.7656H576.047V32.7656H631.734V30.7656ZM577.047 31.7656V20.75H575.047V31.7656H577.047ZM576.047 21.75H631.734V19.75H576.047V21.75ZM677.438 20.75V19.75H676.438V20.75H677.438ZM691.453 20.75H692.453V19.75H691.453V20.75ZM688.078 79.1094L687.231 78.5787L687.227 78.584L688.078 79.1094ZM678.844 87.2188L678.426 86.3104L678.423 86.3116L678.844 87.2188ZM651.75 87.2188L651.332 88.1271L651.335 88.1284L651.75 87.2188ZM642.469 79.1094L641.618 79.6347L641.621 79.64L642.469 79.1094ZM639.141 20.75V19.75H638.141V20.75H639.141ZM653.203 20.75H654.203V19.75H653.203V20.75ZM658.828 77.6094L658.381 78.5038L658.387 78.5068L658.828 77.6094ZM671.859 77.6094L671.412 76.7149L671.406 76.7181L671.859 77.6094ZM675.984 73.3438L675.09 72.8965L675.084 72.9082L675.984 73.3438ZM677.438 21.75H691.453V19.75H677.438V21.75ZM690.453 20.75V65.8438H692.453V20.75H690.453ZM690.453 65.8438C690.453 70.9507 689.36 75.1781 687.231 78.5787L688.926 79.64C691.297 75.8532 692.453 71.2368 692.453 65.8438H690.453ZM687.227 78.584C685.115 82.0057 682.189 84.5779 678.426 86.3104L679.262 88.1271C683.373 86.2346 686.604 83.4006 688.929 79.6347L687.227 78.584ZM678.423 86.3116C674.67 88.0528 670.318 88.9375 665.344 88.9375V90.9375C670.557 90.9375 675.205 90.0097 679.265 88.1259L678.423 86.3116ZM665.344 88.9375C660.37 88.9375 655.984 88.0529 652.165 86.3091L651.335 88.1284C655.454 90.0096 660.13 90.9375 665.344 90.9375V88.9375ZM652.168 86.3104C648.403 84.5774 645.461 82.0036 643.316 78.5787L641.621 79.64C643.977 83.4027 647.222 86.2351 651.332 88.1271L652.168 86.3104ZM643.32 78.584C641.22 75.1825 640.141 70.9531 640.141 65.8438H638.141C638.141 71.2344 639.28 75.8488 641.618 79.6347L643.32 78.584ZM640.141 65.8438V20.75H638.141V65.8438H640.141ZM639.141 21.75H653.203V19.75H639.141V21.75ZM652.203 20.75V65.8438H654.203V20.75H652.203ZM652.203 65.8438C652.203 69.0014 652.701 71.6693 653.762 73.791L655.551 72.8965C654.674 71.1432 654.203 68.8111 654.203 65.8438H652.203ZM653.762 73.791C654.82 75.9078 656.361 77.4939 658.381 78.5038L659.275 76.7149C657.67 75.9123 656.43 74.6547 655.551 72.8965L653.762 73.791ZM658.387 78.5068C660.395 79.4936 662.723 79.9688 665.344 79.9688V77.9688C662.964 77.9688 660.949 77.5376 659.269 76.7119L658.387 78.5068ZM665.344 79.9688C668.021 79.9688 670.357 79.4957 672.313 78.5007L671.406 76.7181C669.799 77.5356 667.792 77.9688 665.344 77.9688V79.9688ZM672.307 78.5038C674.329 77.4924 675.857 75.9024 676.885 73.7793L675.084 72.9082C674.237 74.6601 673.014 75.9138 671.412 76.7149L672.307 78.5038ZM676.879 73.791C677.94 71.6693 678.438 69.0014 678.438 65.8438H676.438C676.438 68.8111 675.967 71.1432 675.09 72.8965L676.879 73.791ZM678.438 65.8438V20.75H676.438V65.8438H678.438ZM709.125 89L708.125 88.9915L708.116 90H709.125V89ZM709.219 78.0312V77.0312H708.227L708.219 78.0227L709.219 78.0312ZM733.312 75.5469L733.86 76.3837L733.867 76.3789L733.312 75.5469ZM739.031 68.1875L738.105 67.8099L738.102 67.8177L739.031 68.1875ZM739.875 43.9531L738.91 44.2143L738.913 44.2249L739.875 43.9531ZM731.344 33.1719L730.935 34.0846L730.947 34.0896L731.344 33.1719ZM708.844 31.7656H707.844V32.7656H708.844V31.7656ZM708.844 20.75V19.75H707.844V20.75H708.844ZM736.641 23.0938L736.259 24.018L736.268 24.0217L736.641 23.0938ZM752.953 40.0156L752.017 40.3668L752.02 40.3756L752.953 40.0156ZM752.953 69.7812L752.019 69.4237L752.017 69.4301L752.953 69.7812ZM746.531 80.0938L745.813 79.3985L745.812 79.3986L746.531 80.0938ZM736.641 86.7031L737.013 87.6311L737.017 87.6295L736.641 86.7031ZM717.094 20.75H718.094V19.75H717.094V20.75ZM717.094 89V90H718.094V89H717.094ZM703.031 89H702.031V90H703.031V89ZM703.031 20.75V19.75H702.031V20.75H703.031ZM723.984 88H709.125V90H723.984V88ZM710.125 89.0085L710.219 78.0398L708.219 78.0227L708.125 88.9915L710.125 89.0085ZM709.219 79.0312H723.984V77.0312H709.219V79.0312ZM723.984 79.0312C727.823 79.0312 731.133 78.1677 733.86 76.3837L732.765 74.7101C730.429 76.2385 727.52 77.0312 723.984 77.0312V79.0312ZM733.867 76.3789C736.59 74.5637 738.615 71.9375 739.96 68.5573L738.102 67.8177C736.885 70.875 735.098 73.155 732.758 74.7148L733.867 76.3789ZM739.957 68.5651C741.331 65.1954 742 61.1692 742 56.5156H740C740 60.9871 739.356 64.7421 738.105 67.8099L739.957 68.5651ZM742 56.5156V53.1875H740V56.5156H742ZM742 53.1875C742 49.619 741.618 46.446 740.837 43.6814L738.913 44.2249C739.632 46.7727 740 49.756 740 53.1875H742ZM740.84 43.6919C740.093 40.9289 738.96 38.5658 737.424 36.6286L735.857 37.8714C737.196 39.5592 738.22 41.6648 738.91 44.2143L740.84 43.6919ZM737.424 36.6286C735.886 34.6889 733.988 33.2268 731.741 32.2542L730.947 34.0896C732.887 34.9295 734.521 36.1861 735.857 37.8714L737.424 36.6286ZM731.752 32.2592C729.509 31.2545 726.959 30.7656 724.125 30.7656V32.7656C726.729 32.7656 728.991 33.2143 730.935 34.0846L731.752 32.2592ZM724.125 30.7656H708.844V32.7656H724.125V30.7656ZM709.844 31.7656V20.75H707.844V31.7656H709.844ZM708.844 21.75H724.125V19.75H708.844V21.75ZM724.125 21.75C728.572 21.75 732.612 22.511 736.259 24.018L737.023 22.1695C733.107 20.5515 728.803 19.75 724.125 19.75V21.75ZM736.268 24.0217C739.954 25.502 743.132 27.6272 745.813 30.3984L747.25 29.0078C744.368 26.0291 740.953 23.748 737.013 22.1658L736.268 24.0217ZM745.813 30.3984C748.492 33.1683 750.562 36.4863 752.017 40.3667L753.889 39.6645C752.345 35.5449 750.133 31.988 747.25 29.0078L745.813 30.3984ZM752.02 40.3756C753.501 44.214 754.25 48.5116 754.25 53.2812H756.25C756.25 48.3009 755.468 43.7547 753.886 39.6557L752.02 40.3756ZM754.25 53.2812V56.5156H756.25V53.2812H754.25ZM754.25 56.5156C754.25 61.253 753.501 65.5518 752.019 69.4237L753.887 70.1388C755.467 66.0107 756.25 61.4657 756.25 56.5156H754.25ZM752.017 69.4301C750.562 73.3106 748.492 76.6286 745.813 79.3985L747.25 80.789C750.133 77.8089 752.345 74.2519 753.889 70.1324L752.017 69.4301ZM745.812 79.3986C743.164 82.1374 739.985 84.264 736.264 85.7767L737.017 87.6295C740.983 86.0172 744.399 83.7376 747.25 80.7889L745.812 79.3986ZM736.268 85.7752C732.588 87.2532 728.498 88 723.984 88V90C728.721 90 733.068 89.2155 737.013 87.6311L736.268 85.7752ZM716.094 20.75V89H718.094V20.75H716.094ZM717.094 88H703.031V90H717.094V88ZM704.031 89V20.75H702.031V89H704.031ZM703.031 21.75H717.094V19.75H703.031V21.75ZM780.422 20.75H781.422V19.75H780.422V20.75ZM780.422 89V90H781.422V89H780.422ZM766.406 89H765.406V90H766.406V89ZM766.406 20.75V19.75H765.406V20.75H766.406ZM779.422 20.75V89H781.422V20.75H779.422ZM780.422 88H766.406V90H780.422V88ZM767.406 89V20.75H765.406V89H767.406ZM766.406 21.75H780.422V19.75H766.406V21.75ZM841.594 81.0312L842.34 81.6966L842.344 81.6926L841.594 81.0312ZM832.406 87.6406L832.011 86.7219L832.008 86.7232L832.406 87.6406ZM808.875 87.6406L808.477 88.5581L808.48 88.5594L808.875 87.6406ZM799.688 81.0312L798.941 81.6971L798.945 81.7011L799.688 81.0312ZM793.641 70.4844L792.694 70.8071L792.696 70.8135L793.641 70.4844ZM793.641 39.3125L794.586 39.6374L794.587 39.6352L793.641 39.3125ZM799.594 28.7656L798.848 28.0998L798.844 28.1043L799.594 28.7656ZM808.781 22.1094L808.386 21.1906L808.383 21.1919L808.781 22.1094ZM832.312 22.1094L831.915 23.0268L831.918 23.0281L832.312 22.1094ZM841.5 28.7656L840.75 29.427L840.754 29.4315L841.5 28.7656ZM847.5 39.3125L846.553 39.6352L846.556 39.6438L847.5 39.3125ZM826.875 32.4688L826.41 33.3541L826.422 33.3601L826.875 32.4688ZM814.219 32.4688L814.678 33.357L814.684 33.354L814.219 32.4688ZM809.578 36.6875L808.752 36.1233L808.746 36.1328L809.578 36.6875ZM806.719 66.0781L805.745 66.3078L805.746 66.3102L806.719 66.0781ZM809.625 73.0625L808.795 73.6204L808.799 73.6267L809.625 73.0625ZM831.609 73.0625L832.441 73.6172L832.446 73.6109L831.609 73.0625ZM834.469 66.0781L835.441 66.3102L835.442 66.3078L834.469 66.0781ZM848.656 53.2812V56.5156H850.656V53.2812H848.656ZM848.656 56.5156C848.656 61.6137 847.965 66.1582 846.6 70.1617L848.493 70.807C849.941 66.5605 850.656 61.7926 850.656 56.5156H848.656ZM846.6 70.1617C845.231 74.1775 843.309 77.5741 840.844 80.3699L842.344 81.6926C845.004 78.6759 847.05 75.0413 848.493 70.807L846.6 70.1617ZM840.847 80.3659C838.383 83.131 835.44 85.248 832.011 86.7219L832.801 88.5594C836.497 86.9708 839.68 84.6815 842.34 81.6966L840.847 80.3659ZM832.008 86.7232C828.617 88.1938 824.833 88.9375 820.641 88.9375V90.9375C825.073 90.9375 829.133 90.15 832.804 88.5581L832.008 86.7232ZM820.641 88.9375C816.481 88.9375 812.695 88.1942 809.27 86.7219L808.48 88.5594C812.18 90.1496 816.238 90.9375 820.641 90.9375V88.9375ZM809.273 86.7232C805.874 85.2492 802.928 83.1308 800.43 80.3614L798.945 81.7011C801.634 84.6817 804.814 86.9696 808.477 88.5581L809.273 86.7232ZM800.434 80.3654C797.937 77.5685 795.984 74.1712 794.585 70.1553L792.696 70.8135C794.172 75.0476 796.25 78.6815 798.941 81.6971L800.434 80.3654ZM794.587 70.1617C793.222 66.1582 792.531 61.6137 792.531 56.5156H790.531C790.531 61.7926 791.246 66.5605 792.694 70.807L794.587 70.1617ZM792.531 56.5156V53.2812H790.531V56.5156H792.531ZM792.531 53.2812C792.531 48.151 793.223 43.6076 794.586 39.6374L792.695 38.9876C791.246 43.2049 790.531 47.974 790.531 53.2812H792.531ZM794.587 39.6352C795.956 35.6194 797.879 32.2228 800.344 29.427L798.844 28.1043C796.184 31.121 794.138 34.7556 792.694 38.9898L794.587 39.6352ZM800.34 29.4315C802.838 26.632 805.782 24.4997 809.179 23.0268L808.383 21.1919C804.718 22.7815 801.537 25.0868 798.848 28.0998L800.34 29.4315ZM809.176 23.0281C812.601 21.5558 816.387 20.8125 820.547 20.8125V18.8125C816.144 18.8125 812.086 19.6004 808.386 21.1906L809.176 23.0281ZM820.547 20.8125C824.739 20.8125 828.523 21.5562 831.915 23.0268L832.71 21.1919C829.039 19.6 824.98 18.8125 820.547 18.8125V20.8125ZM831.918 23.0281C835.344 24.501 838.285 26.6318 840.75 29.427L842.25 28.1043C839.59 25.0869 836.406 22.7803 832.707 21.1906L831.918 23.0281ZM840.754 29.4315C843.249 32.2267 845.185 35.6218 846.553 39.6352L848.447 38.9898C847.002 34.7532 844.939 31.1171 842.246 28.0998L840.754 29.4315ZM846.556 39.6438C847.95 43.612 848.656 48.1531 848.656 53.2812H850.656C850.656 47.9719 849.925 43.2005 848.444 38.9812L846.556 39.6438ZM836.453 56.5156V53.1875H834.453V56.5156H836.453ZM836.453 53.1875C836.453 49.5051 836.12 46.2367 835.441 43.3929L833.496 43.8571C834.13 46.5133 834.453 49.6199 834.453 53.1875H836.453ZM835.441 43.3929C834.764 40.5522 833.753 38.1204 832.388 36.1233L830.737 37.2517C831.935 39.0046 832.861 41.1978 833.496 43.8571L835.441 43.3929ZM832.388 36.1233C831.022 34.1236 829.336 32.5982 827.328 31.5774L826.422 33.3601C828.102 34.2143 829.541 35.5014 830.737 37.2517L832.388 36.1233ZM827.34 31.5835C825.334 30.5294 823.061 30.0156 820.547 30.0156V32.0156C822.783 32.0156 824.729 32.4706 826.41 33.354L827.34 31.5835ZM820.547 30.0156C818.033 30.0156 815.76 30.5294 813.754 31.5835L814.684 33.354C816.365 32.4706 818.311 32.0156 820.547 32.0156V30.0156ZM813.759 31.5805C811.784 32.6024 810.116 34.1274 808.752 36.1233L810.404 37.2517C811.602 35.4976 813.029 34.2101 814.678 33.357L813.759 31.5805ZM808.746 36.1328C807.416 38.1276 806.423 40.556 805.746 43.3929L807.691 43.8571C808.327 41.194 809.24 38.9974 810.41 37.2422L808.746 36.1328ZM805.746 43.3929C805.067 46.2367 804.734 49.5051 804.734 53.1875H806.734C806.734 49.6199 807.058 46.5133 807.691 43.8571L805.746 43.3929ZM804.734 53.1875V56.5156H806.734V53.1875H804.734ZM804.734 56.5156C804.734 60.1679 805.068 63.4349 805.745 66.3078L807.692 65.8485C807.057 63.1588 806.734 60.0509 806.734 56.5156H804.734ZM805.746 66.3102C806.424 69.1506 807.434 71.595 808.795 73.6203L810.455 72.5047C809.254 70.7175 808.326 68.5057 807.691 65.846L805.746 66.3102ZM808.799 73.6267C810.164 75.6241 811.846 77.1619 813.847 78.2134L814.778 76.4429C813.091 75.5568 811.648 74.2509 810.451 72.4983L808.799 73.6267ZM813.847 78.2134C815.854 79.2675 818.127 79.7812 820.641 79.7812V77.7812C818.405 77.7812 816.459 77.3263 814.778 76.4429L813.847 78.2134ZM820.641 79.7812C823.155 79.7812 825.428 79.2675 827.434 78.2134L826.504 76.4429C824.822 77.3263 822.877 77.7812 820.641 77.7812V79.7812ZM827.434 78.2134C829.438 77.1606 831.106 75.6196 832.441 73.6172L830.777 72.5078C829.612 74.2554 828.187 75.5582 826.504 76.4429L827.434 78.2134ZM832.446 73.6109C833.772 71.5878 834.765 69.1468 835.441 66.3102L833.496 65.846C832.86 68.5095 831.947 70.7247 830.773 72.5141L832.446 73.6109ZM835.442 66.3078C836.12 63.4349 836.453 60.1679 836.453 56.5156H834.453C834.453 60.0509 834.13 63.1588 833.495 65.8485L835.442 66.3078ZM894.75 67.8594L893.804 68.1845L893.811 68.2025L893.817 68.2204L894.75 67.8594ZM892.781 65.1406L892.124 65.8947L892.131 65.9008L892.139 65.9068L892.781 65.1406ZM881.906 60.125L881.599 61.0766L881.606 61.0789L881.906 60.125ZM873.094 56.75L872.68 57.6604L872.684 57.6621L873.094 56.75ZM865.781 52.3906L865.154 53.1692L865.16 53.1743L865.167 53.1794L865.781 52.3906ZM860.812 46.5312L859.931 47.0032L859.936 47.0127L860.812 46.5312ZM860.906 31.0625L861.786 31.538L861.789 31.5331L860.906 31.0625ZM866.156 25.0625L866.749 25.8679L866.756 25.8625L866.156 25.0625ZM874.125 21.1719L873.844 20.2122L873.841 20.213L874.125 21.1719ZM906.188 29.9844L905.35 30.5314L905.354 30.5372L906.188 29.9844ZM909.328 40.8125V41.8125H910.328V40.8125H909.328ZM895.359 40.8125H894.359V41.8125H895.359V40.8125ZM894.094 35.5625L893.21 36.0312L893.216 36.0421L893.222 36.0528L894.094 35.5625ZM890.344 31.9531L889.877 32.8373L889.883 32.8409L890.344 31.9531ZM877.969 31.7656L878.373 32.6802L878.381 32.6769L878.388 32.6736L877.969 31.7656ZM874.312 34.7188L875.145 35.2735L875.151 35.2637L874.312 34.7188ZM873.938 41.9844L873.08 42.4989L873.086 42.5092L873.093 42.5194L873.938 41.9844ZM886.688 49.0156L886.392 49.9708L886.398 49.9728L886.688 49.0156ZM896.484 52.8125L896.037 53.7069L896.041 53.7089L896.484 52.8125ZM874.641 88.625L874.374 89.5889L874.383 89.5912L874.641 88.625ZM865.688 84.5469L865.124 85.3729L865.128 85.3759L865.688 84.5469ZM856.922 67.625V66.625H855.922V67.625H856.922ZM871.031 67.625H872.031V66.625H871.031V67.625ZM874.781 76.5781L874.175 77.3731L874.185 77.3806L874.781 76.5781ZM879.094 78.5469L878.856 79.5181L878.86 79.5191L879.094 78.5469ZM890.625 78.125L890.229 77.2068L890.222 77.2097L890.625 78.125ZM894.141 75.2656L893.299 74.726L893.294 74.7337L893.289 74.7415L894.141 75.2656ZM896.312 71.1406C896.312 69.8194 896.109 68.6003 895.683 67.4984L893.817 68.2204C894.141 69.0559 894.312 70.0243 894.312 71.1406H896.312ZM895.696 67.5343C895.282 66.3315 894.504 65.2807 893.424 64.3744L892.139 65.9068C892.996 66.6255 893.53 67.3872 893.804 68.1845L895.696 67.5343ZM893.438 64.3865C892.372 63.4583 890.921 62.5836 889.124 61.7492L888.282 63.5633C889.985 64.3539 891.253 65.1354 892.124 65.8947L893.438 64.3865ZM889.124 61.7492C887.321 60.9118 885.01 60.0532 882.206 59.1711L881.606 61.0789C884.365 61.9468 886.586 62.7757 888.282 63.5633L889.124 61.7492ZM882.214 59.1735C879.153 58.184 876.249 57.0719 873.504 55.8379L872.684 57.6621C875.501 58.9281 878.472 60.066 881.599 61.0765L882.214 59.1735ZM873.508 55.8396C870.821 54.6183 868.452 53.2044 866.396 51.6019L865.167 53.1794C867.36 54.8893 869.867 56.3817 872.68 57.6604L873.508 55.8396ZM866.409 51.612C864.41 50.0012 862.841 48.1472 861.689 46.0498L859.936 47.0127C861.221 49.3528 862.965 51.405 865.154 53.1692L866.409 51.612ZM861.694 46.0594C860.596 44.0083 860.031 41.5974 860.031 38.7969H858.031C858.031 41.8714 858.654 44.6167 859.931 47.0031L861.694 46.0594ZM860.031 38.7969C860.031 36.1052 860.621 33.6927 861.786 31.538L860.027 30.587C858.691 33.0573 858.031 35.801 858.031 38.7969H860.031ZM861.789 31.5331C862.965 29.328 864.613 27.4402 866.749 25.8678L865.563 24.2572C863.2 25.9973 861.348 28.1095 860.024 30.5919L861.789 31.5331ZM866.756 25.8625C868.899 24.2553 871.445 23.0078 874.409 22.1308L873.841 20.213C870.68 21.1484 867.913 22.4947 865.556 24.2625L866.756 25.8625ZM874.406 22.1315C877.397 21.2556 880.691 20.8125 884.297 20.8125V18.8125C880.528 18.8125 877.041 19.2757 873.844 20.2122L874.406 22.1315ZM884.297 20.8125C889.208 20.8125 893.445 21.6969 897.034 23.4316L897.904 21.6309C893.993 19.7406 889.448 18.8125 884.297 18.8125V20.8125ZM897.034 23.4316C900.638 25.1736 903.397 27.5429 905.35 30.5314L907.025 29.4373C904.853 26.1134 901.8 23.5139 897.904 21.6309L897.034 23.4316ZM905.354 30.5372C907.331 33.5175 908.328 36.9317 908.328 40.8125H910.328C910.328 36.5683 909.231 32.7637 907.021 29.4316L905.354 30.5372ZM909.328 39.8125H895.359V41.8125H909.328V39.8125ZM896.359 40.8125C896.359 38.6688 895.906 36.7446 894.965 35.0722L893.222 36.0528C893.969 37.3804 894.359 38.9562 894.359 40.8125H896.359ZM894.977 35.0938C894.06 33.3658 892.654 32.0244 890.804 31.0654L889.883 32.8409C891.409 33.6318 892.502 34.6967 893.21 36.0312L894.977 35.0938ZM890.811 31.0689C888.969 30.0959 886.702 29.6406 884.062 29.6406V31.6406C886.486 31.6406 888.406 32.0604 889.877 32.8373L890.811 31.0689ZM884.062 29.6406C881.53 29.6406 879.345 30.0293 877.55 30.8577L878.388 32.6736C879.843 32.002 881.72 31.6406 884.062 31.6406V29.6406ZM877.564 30.8511C875.796 31.633 874.411 32.7321 873.474 34.1738L875.151 35.2637C875.839 34.2054 876.891 33.3357 878.373 32.6802L877.564 30.8511ZM873.48 34.164C872.553 35.5548 872.094 37.1245 872.094 38.8438H874.094C874.094 37.5005 874.447 36.3202 875.145 35.2735L873.48 34.164ZM872.094 38.8438C872.094 40.1704 872.419 41.3969 873.08 42.4989L874.795 41.4699C874.331 40.6969 874.094 39.8296 874.094 38.8438H872.094ZM873.093 42.5194C873.773 43.594 874.752 44.5592 875.988 45.4276L877.137 43.7912C876.061 43.0345 875.289 42.2497 874.782 41.4493L873.093 42.5194ZM875.988 45.4276C877.215 46.2902 878.702 47.0877 880.436 47.8263L881.22 45.9862C879.579 45.2873 878.222 44.5536 877.137 43.7912L875.988 45.4276ZM880.436 47.8263C882.162 48.5613 884.148 49.2758 886.392 49.9708L886.983 48.0604C884.789 47.3805 882.869 46.6887 881.22 45.9862L880.436 47.8263ZM886.398 49.9728C890.075 51.085 893.286 52.3311 896.037 53.7069L896.932 51.9181C894.058 50.4814 890.738 49.1962 886.977 48.0585L886.398 49.9728ZM896.041 53.7089C898.818 55.0823 901.11 56.6101 902.933 58.2835L904.286 56.8102C902.296 54.9837 899.838 53.3552 896.928 51.9161L896.041 53.7089ZM902.933 58.2835C904.744 59.9459 906.096 61.8177 907.005 63.9001L908.838 63.0999C907.81 60.7448 906.287 58.6478 904.286 56.8102L902.933 58.2835ZM907.005 63.9001C907.911 65.9739 908.375 68.35 908.375 71.0469H910.375C910.375 68.1187 909.87 65.4636 908.838 63.0999L907.005 63.9001ZM908.375 71.0469C908.375 73.8832 907.823 76.3847 906.744 78.5732L908.537 79.458C909.77 76.959 910.375 74.1481 910.375 71.0469H908.375ZM906.744 78.5732C905.661 80.7686 904.094 82.6314 902.029 84.166L903.221 85.7715C905.531 84.0561 907.308 81.9502 908.537 79.458L906.744 78.5732ZM902.029 84.166C899.954 85.7074 897.46 86.8927 894.529 87.7085L895.065 89.6353C898.197 88.7636 900.921 87.4801 903.221 85.7715L902.029 84.166ZM894.529 87.7085C891.6 88.5238 888.301 88.9375 884.625 88.9375V90.9375C888.449 90.9375 891.932 90.5074 895.065 89.6353L894.529 87.7085ZM884.625 88.9375C881.338 88.9375 878.096 88.5115 874.898 87.6588L874.383 89.5912C877.748 90.4885 881.162 90.9375 884.625 90.9375V88.9375ZM874.907 87.6611C871.725 86.7822 868.84 85.4668 866.247 83.7178L865.128 85.3759C867.91 87.2519 870.994 88.6553 874.374 89.5889L874.907 87.6611ZM866.251 83.7209C863.722 81.995 861.701 79.7966 860.183 77.1164L858.442 78.1024C860.111 81.0471 862.341 83.4738 865.124 85.3729L866.251 83.7209ZM860.183 77.1164C858.689 74.4803 857.922 71.3287 857.922 67.625H855.922C855.922 71.6088 856.749 75.1134 858.442 78.1024L860.183 77.1164ZM856.922 68.625H871.031V66.625H856.922V68.625ZM870.031 67.625C870.031 69.8476 870.374 71.7923 871.103 73.4236L872.929 72.6077C872.345 71.3014 872.031 69.6524 872.031 67.625H870.031ZM871.103 73.4236C871.822 75.0328 872.844 76.3577 874.175 77.3731L875.388 75.7832C874.343 74.986 873.522 73.9359 872.929 72.6077L871.103 73.4236ZM874.185 77.3806C875.523 78.3757 877.086 79.084 878.856 79.5181L879.332 77.5757C877.789 77.1973 876.477 76.5931 875.378 75.7757L874.185 77.3806ZM878.86 79.5191C880.634 79.9463 882.558 80.1562 884.625 80.1562V78.1562C882.692 78.1562 880.928 77.9599 879.328 77.5747L878.86 79.5191ZM884.625 80.1562C887.146 80.1562 889.296 79.8022 891.028 79.0403L890.222 77.2097C888.829 77.8228 886.979 78.1562 884.625 78.1562V80.1562ZM891.021 79.0432C892.763 78.2919 894.113 77.218 894.992 75.7897L893.289 74.7415C892.668 75.7508 891.675 76.5831 890.229 77.2068L891.021 79.0432ZM894.983 75.8053C895.873 74.416 896.312 72.8516 896.312 71.1406H894.312C894.312 72.4921 893.971 73.6778 893.299 74.726L894.983 75.8053Z" fill="black"/>
<path d="M277.844 140.422L259.281 197H244.328L269.688 128.75H279.203L277.844 140.422ZM293.266 197L274.656 140.422L273.156 128.75H282.766L308.266 197H293.266ZM292.422 171.594V182.609H256.375V171.594H292.422ZM314.594 128.75H340.047C345.266 128.75 349.75 129.531 353.5 131.094C357.281 132.656 360.188 134.969 362.219 138.031C364.25 141.094 365.266 144.859 365.266 149.328C365.266 152.984 364.641 156.125 363.391 158.75C362.172 161.344 360.438 163.516 358.188 165.266C355.969 166.984 353.359 168.359 350.359 169.391L345.906 171.734H323.781L323.688 160.766H340.141C342.609 160.766 344.656 160.328 346.281 159.453C347.906 158.578 349.125 157.359 349.938 155.797C350.781 154.234 351.203 152.422 351.203 150.359C351.203 148.172 350.797 146.281 349.984 144.688C349.172 143.094 347.938 141.875 346.281 141.031C344.625 140.188 342.547 139.766 340.047 139.766H328.656V197H314.594V128.75ZM352.75 197L337.188 166.578L352.047 166.484L367.797 196.344V197H352.75ZM421.891 186.031V197H385.562V186.031H421.891ZM390.156 128.75V197H376.094V128.75H390.156ZM417.156 156.547V167.234H385.562V156.547H417.156ZM421.844 128.75V139.766H385.562V128.75H421.844ZM497.875 186.031V197H463.516V186.031H497.875ZM468.062 128.75V197H454V128.75H468.062ZM520.891 128.75V197H506.875V128.75H520.891ZM558.672 182.75L574.75 128.75H590.406L566.641 197H556.328L558.672 182.75ZM543.859 128.75L559.891 182.75L562.328 197H551.922L528.297 128.75H543.859ZM642.578 186.031V197H606.25V186.031H642.578ZM610.844 128.75V197H596.781V128.75H610.844ZM637.844 156.547V167.234H606.25V156.547H637.844ZM642.531 128.75V139.766H606.25V128.75H642.531Z" fill="black"/>
<path d="M664 197L664 180.923L666.502 159L685.497 159L688 180.923L688 197L664 197Z" fill="black"/>
<path d="M675.999 118C666.013 118 658 126.014 658 136C658 145.986 666.136 154 675.999 154C685.985 154 693.999 145.986 693.999 136C694.123 126.014 685.985 118 675.999 118Z" fill="#E6007A"/>
</svg>
